# xmcd
#
# Track frame offsets: 
#        150
#        25107
#        47723
#        68078
#        87810
#        111805
#        133301
#        151905
#        171202
#        186335
#
# Disc length: 2754 seconds
#
# Revision: 0
# Processed by: cddbd v1.5.2PL0 Copyright (c) Steve Scherf et al.
# Submitted via: ExactAudioCopy v1.0b4
#
DISCID=810ac00a
DTITLE=Rory Block - Hard Luck Child
DYEAR=2014
DGENRE=Blues, Country Blues
TTITLE0=Nehemiah James
TTITLE1=Special Rider Blues
TTITLE2=Cypress Grove Blues
TTITLE3=If You Haven't Any Hay, Get on Down the Road
TTITLE4=Little Cow and Calf Is Gonna Die Blues
TTITLE5=Devil Got My Woman
TTITLE6=Jesus Is a Mighty Good Leader
TTITLE7=Hard Time Killing Floor Blues
TTITLE8=I'm so Glad
TTITLE9=Hard Luck Child
EXTD=
EXTT0=
EXTT1=
EXTT2=
EXTT3=
EXTT4=
EXTT5=
EXTT6=
EXTT7=
EXTT8=
EXTT9=
PLAYORDER=
